<svg xmlns="http://www.w3.org/2000/svg" viewBox="0 0 32 32">
  <defs>
    <linearGradient id="g" x1="0" y1="0" x2="32" y2="32" gradientUnits="userSpaceOnUse">
      <stop offset="0" stop-color="#1B5E3B"/>
      <stop offset="1" stop-color="#2D8A5E"/>
    </linearGradient>
  </defs>
  <rect width="32" height="32" rx="7" fill="url(#g)"/>
  <path d="M9 22V10h5c1.3 0 2.3.35 3 1s1 1.5 1 2.4c0 .7-.2 1.2-.55 1.7-.35.45-.8.8-1.35 1 .65.15 1.2.5 1.65 1 .45.5.65 1.15.65 1.9 0 1.1-.35 1.95-1.1 2.5-.7.55-1.7.85-3 .85H9zm2.8-7.2h2.15c.55 0 1-.15 1.3-.4.3-.3.45-.65.45-1.1s-.15-.85-.45-1.1c-.3-.3-.75-.45-1.3-.45H11.8v3.05zm0 5h2.4c.65 0 1.1-.2 1.4-.5.3-.35.45-.75.45-1.2 0-.5-.15-.9-.45-1.2-.3-.35-.75-.5-1.4-.5H11.8v3.4z" fill="#fff"/>
  <circle cx="24" cy="10" r="3" fill="#D4A853"/>
</svg>
